<svg width="539" height="540" viewBox="0 0 539 540" fill="none" xmlns="http://www.w3.org/2000/svg">
<path d="M43.4316 238.158V243.98H61.9558C72.0599 243.98 82.6821 244.626 85.532 245.403C104.445 250.577 111.31 271.923 98.745 286.283C92.1385 293.916 86.4388 295.727 69.7282 295.727H55.0902V277.615V259.504H49.2609H43.4316V284.084V308.664H61.9558C88.2523 308.664 99.5223 305.171 108.849 294.175C115.585 286.283 117.528 279.815 117.01 267.913C116.621 258.21 116.233 256.787 111.699 249.931C106.517 242.168 98.2269 235.829 90.0659 233.63C87.6046 232.983 76.0756 232.336 64.5466 232.336H43.4316V238.158Z" fill="white"/>
<path d="M131.554 257.472C131.939 282.311 131.939 282.44 135.789 289.297C150.29 315.817 186.222 314.912 200.338 287.744C203.674 281.405 203.803 280.241 204.188 256.825L204.701 232.633H198.284H191.868L191.355 256.178C190.97 278.3 190.841 280.111 188.018 284.769C186.35 287.356 182.372 291.108 179.292 292.919C167.614 299.905 152.215 294.989 146.569 282.569C144.515 278.042 144.13 273.902 144.13 254.885V232.633H137.586H131.041L131.554 257.472Z" fill="white"/>
<path d="M263.061 232.425H272.71L320.346 308.664L307.018 308.664L268.684 242.951L232.495 307.758H218.65L263.061 232.425Z" fill="white"/>
<path d="M473.093 243.739C469.006 249.189 463.189 256.589 463.189 256.589L469.179 267.569L495.568 232.633L489.075 232.633H482.463L473.093 243.739Z" fill="white"/>
<path d="M445.724 295.878C449.812 290.428 455.142 283.185 455.142 283.185L449.566 273.581L422.481 308.468L428.974 308.468L435.586 308.468L445.724 295.878Z" fill="white"/>
<path d="M480.388 308.664L462.89 284.289L468.459 274.093L495.568 308.664H480.388Z" fill="white"/>
<path d="M437.088 232.633L455.117 257.247L448.731 268.183L421.908 232.633L437.088 232.633Z" fill="white"/>
<rect x="364.964" y="256.051" width="12.3285" height="52.6134" fill="white"/>
<rect x="407.958" y="232.633" width="10.4894" height="73.6598" transform="rotate(90 407.958 232.633)" fill="white"/>
</svg>
