<?xml version="1.0" encoding="UTF-8" standalone="no"?>
<svg
   width="539.67163"
   height="104.10448"
   viewBox="0 0 539.67163 104.10448"
   fill="none"
   version="1.1"
   id="svg20"
   sodipodi:docname="logo-escrita-lightversion@2x.svg"
   inkscape:version="1.2.2 (732a01da63, 2022-12-09)"
   xmlns:inkscape="http://www.inkscape.org/namespaces/inkscape"
   xmlns:sodipodi="http://sodipodi.sourceforge.net/DTD/sodipodi-0.dtd"
   xmlns="http://www.w3.org/2000/svg"
   xmlns:svg="http://www.w3.org/2000/svg">
  <defs
     id="defs24">
    <clipPath
       clipPathUnits="userSpaceOnUse"
       id="clipPath372">
      <rect
         style="opacity:0.3;fill:#000000;fill-opacity:0.4"
         id="rect374"
         width="540"
         height="114.17911"
         x="-0.67164177"
         y="216.26866" />
    </clipPath>
  </defs>
  <sodipodi:namedview
     id="namedview22"
     pagecolor="#505050"
     bordercolor="#eeeeee"
     borderopacity="1"
     inkscape:showpageshadow="0"
     inkscape:pageopacity="0"
     inkscape:pagecheckerboard="0"
     inkscape:deskcolor="#505050"
     showgrid="false"
     inkscape:zoom="1.4888889"
     inkscape:cx="261.9403"
     inkscape:cy="52.38806"
     inkscape:window-width="2400"
     inkscape:window-height="1261"
     inkscape:window-x="2391"
     inkscape:window-y="-9"
     inkscape:window-maximized="1"
     inkscape:current-layer="svg20" />
  <g
     id="g262"
     clip-path="url(#clipPath372)"
     transform="translate(0,-218.28358)">
    <path
       d="m 43.4316,238.158 v 5.822 h 18.5242 c 10.1041,0 20.7263,0.646 23.5762,1.423 18.913,5.174 25.778,26.52 13.213,40.88 -6.6065,7.633 -12.3062,9.444 -29.0168,9.444 h -14.638 v -18.112 -18.111 h -5.8293 -5.8293 v 24.58 24.58 h 18.5242 c 26.2965,0 37.5665,-3.493 46.8932,-14.489 6.736,-7.892 8.679,-14.36 8.161,-26.262 -0.389,-9.703 -0.777,-11.126 -5.311,-17.982 -5.182,-7.763 -13.4721,-14.102 -21.6331,-16.301 -2.4613,-0.647 -13.9903,-1.294 -25.5193,-1.294 h -21.115 z"
       fill="#ffffff"
       id="path2" />
    <path
       d="m 131.554,257.472 c 0.385,24.839 0.385,24.968 4.235,31.825 14.501,26.52 50.433,25.615 64.549,-1.553 3.336,-6.339 3.465,-7.503 3.85,-30.919 l 0.513,-24.192 h -6.417 -6.416 l -0.513,23.545 c -0.385,22.122 -0.514,23.933 -3.337,28.591 -1.668,2.587 -5.646,6.339 -8.726,8.15 -11.678,6.986 -27.077,2.07 -32.723,-10.35 -2.054,-4.527 -2.439,-8.667 -2.439,-27.684 v -22.252 h -6.544 -6.545 z"
       fill="#ffffff"
       id="path4" />
    <path
       d="m 263.061,232.425 h 9.649 l 47.636,76.239 h -13.328 l -38.334,-65.713 -36.189,64.807 H 218.65 Z"
       fill="#ffffff"
       id="path6" />
    <path
       d="m 473.093,243.739 c -4.087,5.45 -9.904,12.85 -9.904,12.85 l 5.99,10.98 26.389,-34.936 h -6.493 -6.612 z"
       fill="#ffffff"
       id="path8" />
    <path
       d="m 445.724,295.878 c 4.088,-5.45 9.418,-12.693 9.418,-12.693 l -5.576,-9.604 -27.085,34.887 h 6.493 6.612 z"
       fill="#ffffff"
       id="path10" />
    <path
       d="m 480.388,308.664 -17.498,-24.375 5.569,-10.196 27.109,34.571 z"
       fill="#ffffff"
       id="path12" />
    <path
       d="m 437.088,232.633 18.029,24.614 -6.386,10.936 -26.823,-35.55 z"
       fill="#ffffff"
       id="path14" />
    <rect
       x="364.96399"
       y="256.05099"
       width="12.3285"
       height="52.6134"
       fill="#ffffff"
       id="rect16" />
    <rect
       x="407.95801"
       y="232.633"
       width="10.4894"
       height="73.659798"
       transform="rotate(90,407.958,232.633)"
       fill="#ffffff"
       id="rect18" />
  </g>
</svg>
